<?xml version="1.0" encoding="iso-8859-1"?>
<!-- Generator: Adobe Illustrator 19.0.0, SVG Export Plug-In . SVG Version: 6.00 Build 0)  -->
<svg xmlns="http://www.w3.org/2000/svg" xmlns:xlink="http://www.w3.org/1999/xlink" version="1.1" id="Layer_1" x="0px" y="0px" viewBox="0 0 512 512" style="enable-background:new 0 0 512 512;" xml:space="preserve" width="83px" height="83px">
<g>
	<g>
		<g>
			<polygon points="212.316,264.157 188.15,264.157 188.15,247.996 172.446,247.996 172.446,264.157 148.279,264.157      148.279,279.861 212.316,279.861    " fill="#ffcc00"/>
			<path d="M260.345,0v15.704h16.163v24.015h8.125c3.758,22.675,23.497,40.023,47.222,40.023c23.723,0,43.462-17.349,47.221-40.023     h8.66V0H260.345z M331.855,64.038c-15.032,0-27.685-10.364-31.2-24.319h62.398C359.54,53.674,346.887,64.038,331.855,64.038z      M372.032,24.014h-79.82v-8.311h79.82V24.014z" fill="#ffcc00"/>
			<path d="M172.446,47.875V239.99h15.704V47.875c0-17.739,14.432-32.171,32.171-32.171h32.019V0h-32.019     C193.923,0,172.446,21.478,172.446,47.875z" fill="#ffcc00"/>
			<path d="M212.163,288.172h-63.732v208.124h-24.167V512h112.013v-15.704h-24.114V288.172z M196.46,496.296h-32.324v-32.324h32.324     V496.296z M196.46,448.268h-32.324V303.876h32.324V448.268z" fill="#ffcc00"/>
		</g>
	</g>
</g>
<g>
</g>
<g>
</g>
<g>
</g>
<g>
</g>
<g>
</g>
<g>
</g>
<g>
</g>
<g>
</g>
<g>
</g>
<g>
</g>
<g>
</g>
<g>
</g>
<g>
</g>
<g>
</g>
<g>
</g>
</svg>
